<svg xmlns="http://www.w3.org/2000/svg" width="68" height="60" viewBox="0 0 68 60" fill="none">
  <path d="M65.4633 26.9392C65.4633 41.4826 52.0318 53.3784 35.3237 53.3784C18.6156 53.3784 5.18408 41.4826 5.18408 26.9392C5.18408 12.3958 18.6156 0.5 35.3237 0.5C52.0318 0.5 65.4633 12.3958 65.4633 26.9392Z" fill="url(#paint0_linear_338_55)" stroke="black"/>
  <path d="M48.3439 41.7039H47.1016V11.6471C47.1016 10.7734 46.4342 10.0652 45.6108 10.0652H24.7404C23.917 10.0652 23.2496 10.7734 23.2496 11.6471V41.7039H22.0073C21.5957 41.7039 21.262 42.0581 21.262 42.4949V43.8132H49.0893V42.4949C49.0893 42.0581 48.7555 41.7039 48.3439 41.7039ZM29.2126 15.0747C29.2126 14.6378 29.5464 14.2837 29.958 14.2837H32.4426C32.8542 14.2837 33.1879 14.6378 33.1879 15.0747V17.7112C33.1879 18.148 32.8542 18.5022 32.4426 18.5022H29.958C29.5464 18.5022 29.2126 18.148 29.2126 17.7112V15.0747ZM29.2126 21.4024C29.2126 20.9656 29.5464 20.6114 29.958 20.6114H32.4426C32.8542 20.6114 33.1879 20.9656 33.1879 21.4024V24.039C33.1879 24.4758 32.8542 24.8299 32.4426 24.8299H29.958C29.5464 24.8299 29.2126 24.4758 29.2126 24.039V21.4024ZM32.4426 31.1577H29.958C29.5464 31.1577 29.2126 30.8035 29.2126 30.3667V27.7302C29.2126 27.2933 29.5464 26.9392 29.958 26.9392H32.4426C32.8542 26.9392 33.1879 27.2933 33.1879 27.7302V30.3667C33.1879 30.8035 32.8542 31.1577 32.4426 31.1577ZM37.1633 41.7039H33.1879V36.1672C33.1879 35.7303 33.5217 35.3762 33.9333 35.3762H36.4179C36.8295 35.3762 37.1633 35.7303 37.1633 36.1672V41.7039ZM41.1386 30.3667C41.1386 30.8035 40.8049 31.1577 40.3932 31.1577H37.9086C37.497 31.1577 37.1633 30.8035 37.1633 30.3667V27.7302C37.1633 27.2933 37.497 26.9392 37.9086 26.9392H40.3932C40.8049 26.9392 41.1386 27.2933 41.1386 27.7302V30.3667ZM41.1386 24.039C41.1386 24.4758 40.8049 24.8299 40.3932 24.8299H37.9086C37.497 24.8299 37.1633 24.4758 37.1633 24.039V21.4024C37.1633 20.9656 37.497 20.6114 37.9086 20.6114H40.3932C40.8049 20.6114 41.1386 20.9656 41.1386 21.4024V24.039ZM41.1386 17.7112C41.1386 18.148 40.8049 18.5022 40.3932 18.5022H37.9086C37.497 18.5022 37.1633 18.148 37.1633 17.7112V15.0747C37.1633 14.6378 37.497 14.2837 37.9086 14.2837H40.3932C40.8049 14.2837 41.1386 14.6378 41.1386 15.0747V17.7112Z" fill="#01215A"/>
  <path d="M56.4559 18.3257L40.4252 20.963C37.5221 21.4406 36.433 23.8994 38.6997 24.8599L43.5568 26.9181L34.6309 34.8578L23.632 30.197C21.7581 29.403 19.0071 29.8555 17.4877 31.2078L9.13103 38.6403C8.37067 39.3165 8.51377 40.1863 9.45071 40.5833L12.8417 42.0203C13.7786 42.4173 15.1541 42.191 15.9145 41.5147L21.5179 36.5301L32.5168 41.1908C34.3907 41.9849 37.1417 41.5323 38.661 40.18L50.3402 29.7926L55.1973 31.8508C57.4639 32.8113 60.8227 31.3142 60.5207 29.4784L58.8531 19.3423C58.7296 18.583 57.6562 18.1282 56.4559 18.3257Z" fill="white"/>
  <path d="M43.6552 27.0287L43.83 26.8732L43.6145 26.7818L38.7574 24.7236C38.2149 24.4937 37.8913 24.1821 37.7393 23.8512C37.5882 23.522 37.5979 23.1544 37.7591 22.7903C38.0843 22.056 39.0289 21.3427 40.4492 21.1091L56.4799 18.4717C57.0568 18.3768 57.5963 18.4401 58.0005 18.6115C58.4067 18.7837 58.6562 19.0542 58.707 19.3661L58.707 19.3663L60.3746 29.5025C60.4417 29.9104 60.3079 30.3069 60.0196 30.666C59.7302 31.0266 59.2891 31.3431 58.762 31.578C57.705 32.0491 56.3422 32.1752 55.2551 31.7145L50.398 29.6563L50.3118 29.6198L50.2418 29.682L38.5627 40.0694L38.5626 40.0694C37.8284 40.723 36.7887 41.1648 35.6978 41.3443C34.607 41.5237 33.4802 41.4383 32.5746 41.0546L21.5756 36.3938L21.4895 36.3573L21.4195 36.4195L15.8161 41.4041C15.8161 41.4041 15.8161 41.4041 15.8161 41.4041C15.4613 41.7197 14.9553 41.9359 14.4203 42.0239C13.8853 42.1119 13.3366 42.0692 12.8994 41.884L9.50846 40.4471C9.07203 40.2621 8.84775 39.9801 8.80044 39.6925C8.75313 39.4049 8.87522 39.0659 9.2294 38.7509L17.5861 31.3184L17.5861 31.3184C18.3204 30.6649 19.3601 30.2231 20.4509 30.0436C21.5418 29.8641 22.6686 29.9495 23.5742 30.3333L34.5731 34.9941L34.6593 35.0306L34.7292 34.9684L43.6552 27.0287ZM60.5207 29.4784L58.8531 19.3423L21.5179 36.5301L32.5168 41.1908C34.3907 41.9849 37.1417 41.5323 38.661 40.18L50.3402 29.7926L55.1973 31.8508C57.4639 32.8113 60.8227 31.3142 60.5207 29.4784Z" stroke="black" stroke-opacity="0.5" stroke-width="0.296035"/>
  <defs>
    <linearGradient id="paint0_linear_338_55" x1="35.3237" y1="0" x2="35.3237" y2="53.8784" gradientUnits="userSpaceOnUse">
      <stop offset="0.0260417" stop-color="white"/>
      <stop offset="0.567708" stop-color="#EBEEF2"/>
      <stop offset="1" stop-color="#01215A"/>
    </linearGradient>
  </defs>
</svg>