<svg width="19" height="14" viewBox="0 0 19 14" fill="none" xmlns="http://www.w3.org/2000/svg">
<path d="M18.0833 11.6667H2.33333V0.583333C2.33333 0.261042 2.07229 0 1.75 0H0.583333C0.261042 0 0 0.261042 0 0.583333V12.8333C0 13.4776 0.522448 14 1.16667 14H18.0833C18.4056 14 18.6667 13.739 18.6667 13.4167V12.25C18.6667 11.9277 18.4056 11.6667 18.0833 11.6667ZM16.9167 1.16667H12.6124C11.8329 1.16667 11.4424 2.10911 11.9937 2.66036L13.1749 3.84161L10.5 6.51693L7.82505 3.84198C7.36932 3.38625 6.63068 3.38625 6.17531 3.84198L3.67099 6.3463C3.44313 6.57417 3.44313 6.94349 3.67099 7.17135L4.49568 7.99604C4.72354 8.22391 5.09286 8.22391 5.32073 7.99604L7 6.31641L9.67495 8.99135C10.1307 9.44708 10.8693 9.44708 11.3247 8.99135L14.8247 5.49135L16.0059 6.6726C16.5572 7.22385 17.4996 6.83339 17.4996 6.05391V1.75C17.5 1.42771 17.239 1.16667 16.9167 1.16667Z" fill="white"/>
</svg>
