<svg xmlns="http://www.w3.org/2000/svg" width="21" height="21" viewBox="0 0 21 21" fill="none">
<path d="M15.0896 13.5253C14.9002 13.7427 14.6885 13.9396 14.4375 14.0852V15.0261C17.1659 15.4092 19.0312 16.1766 19.0312 17.0625C19.0312 18.3311 15.2119 19.3594 10.5 19.3594C5.78813 19.3594 1.96875 18.3311 1.96875 17.0625C1.96875 16.1766 3.83414 15.4096 6.5625 15.0261V14.0852C6.31148 13.9396 6.09984 13.7427 5.91035 13.5253C2.41459 14.1643 0 15.506 0 17.0625C0 19.2371 4.70121 21 10.5 21C16.2988 21 21 19.2371 21 17.0625C21 15.506 18.5854 14.1643 15.0896 13.5253ZM10.5 5.25C11.9499 5.25 13.125 4.0749 13.125 2.625C13.125 1.1751 11.9499 0 10.5 0C9.0501 0 7.875 1.1751 7.875 2.625C7.875 4.0749 9.0501 5.25 10.5 5.25ZM7.875 13.125V17.0625C7.875 17.7872 8.46275 18.375 9.1875 18.375H11.8125C12.5372 18.375 13.125 17.7872 13.125 17.0625V13.125C13.8497 13.125 14.4375 12.5372 14.4375 11.8125V7.875C14.4375 6.78768 13.5561 5.90625 12.4688 5.90625H11.9848C11.5307 6.11256 11.0307 6.23438 10.5 6.23438C9.96926 6.23438 9.46928 6.11256 9.01523 5.90625H8.53125C7.44393 5.90625 6.5625 6.78768 6.5625 7.875V11.8125C6.5625 12.5372 7.15025 13.125 7.875 13.125Z" fill="white"/>
</svg>